<svg width="217" height="56" viewBox="0 0 217 56" fill="none" xmlns="http://www.w3.org/2000/svg">
<path d="M20.3018 3.82315C10.7455 7.53111 4.51658 16.1167 3.34692 25.6221C5.06844 19.2821 9.66956 13.8133 16.2687 11.253C22.6179 8.7887 29.4172 9.5731 34.8652 12.7755C37.3387 9.93406 40.1246 7.38303 43.445 5.60714C39.3935 3.27129 34.7576 1.99982 30.0038 1.99982C26.776 1.99982 23.4926 2.58523 20.3018 3.82315ZM44.5036 25.0887C47.6736 35.6827 42.2291 47.0901 31.7496 51.1556C25.169 53.7077 18.092 52.7926 12.548 49.2825C19.8205 55.501 30.1878 57.6135 39.7324 53.9102C53.5705 48.5432 60.43 32.9894 55.0606 19.1513C54.3642 17.3581 53.4941 15.684 52.4807 14.136C49.3014 17.0457 46.8661 20.9388 44.5036 25.0887Z" fill="url(#paint0_linear_186_33)"/>
<path d="M19.5869 33.9113C9.90565 39.6717 0 30.9229 0 30.9229C0 30.9229 6.39089 47.3444 23.2023 44.0298C42.147 40.2941 40.7448 9.75687 62.6189 6.96403C59.2962 5.86842 56.338 5.38251 53.6735 5.38251C35.9308 5.38367 31.28 26.9535 19.5869 33.9113Z" fill="url(#paint1_linear_186_33)"/>
<path d="M71.2195 18V5.63636H79.1399V7.51385H73.4592V10.8704H78.5966V12.7479H73.4592V18H71.2195ZM89.0301 5.63636V18H86.7904V5.63636H89.0301ZM107.226 5.63636V18H105.233L99.4078 9.57848H99.3051V18H97.0654V5.63636H99.0697L104.889 14.0639H104.998V5.63636H107.226ZM116.864 18H114.473L118.826 5.63636H121.591L125.949 18H123.559L120.256 8.17188H120.16L116.864 18ZM116.942 13.1523H123.462V14.9513H116.942V13.1523ZM143.348 5.63636V18H141.356L135.53 9.57848H135.427V18H133.188V5.63636H135.192L141.012 14.0639H141.12V5.63636H143.348ZM161.981 9.80788H159.723C159.659 9.43762 159.54 9.10961 159.367 8.82386C159.194 8.53409 158.979 8.28859 158.721 8.08736C158.464 7.88613 158.17 7.7352 157.84 7.63459C157.514 7.52995 157.162 7.47763 156.783 7.47763C156.111 7.47763 155.516 7.64666 154.996 7.98473C154.477 8.31877 154.071 8.80978 153.777 9.45774C153.483 10.1017 153.336 10.8885 153.336 11.8182C153.336 12.764 153.483 13.5608 153.777 14.2088C154.075 14.8527 154.481 15.3397 154.996 15.6697C155.516 15.9957 156.109 16.1587 156.777 16.1587C157.148 16.1587 157.494 16.1104 157.816 16.0138C158.142 15.9132 158.433 15.7663 158.691 15.5732C158.953 15.38 159.172 15.1425 159.349 14.8608C159.53 14.5791 159.655 14.2571 159.723 13.8949L161.981 13.907C161.897 14.4946 161.713 15.0459 161.432 15.5611C161.154 16.0762 160.79 16.531 160.339 16.9254C159.888 17.3158 159.361 17.6217 158.757 17.843C158.154 18.0604 157.484 18.169 156.747 18.169C155.66 18.169 154.691 17.9175 153.837 17.4144C152.984 16.9113 152.312 16.1849 151.821 15.2351C151.33 14.2853 151.084 13.1463 151.084 11.8182C151.084 10.486 151.332 9.34706 151.827 8.40128C152.322 7.45147 152.996 6.72502 153.849 6.22195C154.703 5.71887 155.668 5.46733 156.747 5.46733C157.435 5.46733 158.075 5.56392 158.667 5.7571C159.258 5.95028 159.786 6.23402 160.249 6.60831C160.711 6.97857 161.092 7.43336 161.389 7.97266C161.691 8.50793 161.889 9.11967 161.981 9.80788ZM171.882 5.63636V18H169.642V5.63636H171.882ZM181.505 18H179.114L183.467 5.63636H186.232L190.59 18H188.2L184.898 8.17188H184.801L181.505 18ZM181.583 13.1523H188.103V14.9513H181.583V13.1523ZM197.829 18V5.63636H200.069V16.1225H205.514V18H197.829ZM71.2195 42V29.6364H75.8558C76.8056 29.6364 77.6025 29.8134 78.2464 30.1676C78.8944 30.5218 79.3834 31.0088 79.7134 31.6286C80.0475 32.2443 80.2145 32.9446 80.2145 33.7294C80.2145 34.5223 80.0475 35.2266 79.7134 35.8423C79.3794 36.4581 78.8864 36.9431 78.2344 37.2972C77.5824 37.6474 76.7795 37.8224 75.8256 37.8224H72.7528V35.9812H75.5238C76.0792 35.9812 76.534 35.8846 76.8881 35.6914C77.2423 35.4982 77.5039 35.2326 77.6729 34.8945C77.846 34.5565 77.9325 34.1681 77.9325 33.7294C77.9325 33.2907 77.846 32.9044 77.6729 32.5703C77.5039 32.2363 77.2403 31.9767 76.8821 31.7915C76.5279 31.6024 76.0711 31.5078 75.5117 31.5078H73.4592V42H71.2195ZM86.2399 42V29.6364H88.4796V40.1225H93.9249V42H86.2399ZM102.001 42H99.6107L103.963 29.6364H106.728L111.087 42H108.696L105.394 32.1719H105.298L102.001 42ZM102.08 37.1523H108.6V38.9513H102.08V37.1523ZM126.956 29.6364V42H124.963L119.138 33.5785H119.035V42H116.795V29.6364H118.8L124.619 38.0639H124.728V29.6364H126.956ZM143.636 29.6364V42H141.644L135.818 33.5785H135.716V42H133.476V29.6364H135.48L141.3 38.0639H141.409V29.6364H143.636ZM150.157 42V29.6364H158.198V31.5138H152.396V34.8704H157.781V36.7479H152.396V40.1225H158.246V42H150.157ZM164.563 42V29.6364H169.199C170.149 29.6364 170.946 29.8014 171.59 30.1314C172.238 30.4614 172.727 30.9242 173.057 31.5199C173.391 32.1115 173.558 32.8017 173.558 33.5906C173.558 34.3834 173.389 35.0716 173.051 35.6552C172.717 36.2347 172.224 36.6835 171.572 37.0014C170.92 37.3153 170.119 37.4723 169.169 37.4723H165.867V35.6129H168.867C169.422 35.6129 169.877 35.5365 170.231 35.3835C170.586 35.2266 170.847 34.9992 171.016 34.7013C171.189 34.3995 171.276 34.0292 171.276 33.5906C171.276 33.1519 171.189 32.7776 171.016 32.4677C170.843 32.1538 170.58 31.9163 170.225 31.7553C169.871 31.5903 169.414 31.5078 168.855 31.5078H166.802V42H164.563ZM170.95 36.3977L174.011 42H171.511L168.505 36.3977H170.95Z" fill="#0D3A87"/>
<rect x="181" y="27" width="25" height="19" rx="9.5" fill="url(#paint2_linear_186_33)"/>
<path d="M188.64 41H186.333L189.848 30.8182H192.622L196.132 41H193.825L191.275 33.1449H191.195L188.64 41ZM188.496 36.9979H193.945V38.6783H188.496V36.9979ZM199.65 30.8182V41H197.498V30.8182H199.65Z" fill="white"/>
<defs>
<linearGradient id="paint0_linear_186_33" x1="57.0045" y1="1.88359" x2="-2.159" y2="61.0471" gradientUnits="userSpaceOnUse">
<stop stop-color="#1355C9"/>
<stop offset="1" stop-color="#051838"/>
</linearGradient>
<linearGradient id="paint1_linear_186_33" x1="0.000453517" y1="24.9273" x2="62.6194" y2="24.9273" gradientUnits="userSpaceOnUse">
<stop stop-color="#8FB4F5"/>
<stop offset="1" stop-color="#1459D2"/>
</linearGradient>
<linearGradient id="paint2_linear_186_33" x1="199.5" y1="27" x2="188.5" y2="46" gradientUnits="userSpaceOnUse">
<stop stop-color="#2162D5"/>
<stop offset="1" stop-color="#4980E1"/>
</linearGradient>
</defs>
</svg>
