<svg width="16" height="20" viewBox="0 0 16 20" fill="none" xmlns="http://www.w3.org/2000/svg">
<path d="M8.0002 10.6996C9.54659 10.6996 10.8002 9.44601 10.8002 7.89961C10.8002 6.35321 9.54659 5.09961 8.0002 5.09961C6.4538 5.09961 5.2002 6.35321 5.2002 7.89961C5.2002 9.44601 6.4538 10.6996 8.0002 10.6996Z" stroke="#628EF9" stroke-width="1.5" stroke-linecap="round" stroke-linejoin="round"/>
<path d="M15 7.90039C15 14.2004 8 19.1004 8 19.1004C8 19.1004 1 14.2004 1 7.90039C1 6.04388 1.7375 4.2634 3.05025 2.95064C4.36301 1.63789 6.14348 0.900391 8 0.900391C9.85652 0.900391 11.637 1.63789 12.9497 2.95064C14.2625 4.2634 15 6.04388 15 7.90039Z" stroke="#628EF9" stroke-width="1.5" stroke-linecap="round" stroke-linejoin="round"/>
</svg>
