<svg width="19" height="19" viewBox="0 0 19 19" fill="none" xmlns="http://www.w3.org/2000/svg">
<path d="M12.4521 11.5488C12.5553 11.4801 12.6739 11.4383 12.7972 11.4271C12.9206 11.4159 13.0448 11.4356 13.1586 11.4845L17.548 13.4512C17.6959 13.5144 17.8194 13.6239 17.9 13.7631C17.9805 13.9024 18.0138 14.064 17.9948 14.2237C17.8502 15.3044 17.318 16.2957 16.4973 17.0134C15.6765 17.7311 14.623 18.1263 13.5327 18.1255C10.1756 18.1255 6.9559 16.7918 4.58203 14.418C2.20815 12.0441 0.874513 8.8244 0.874513 5.46723C0.873679 4.37695 1.26885 3.32347 1.98654 2.50272C2.70423 1.68197 3.69558 1.1498 4.77623 1.0052C4.93598 0.986222 5.09757 1.01949 5.23683 1.10003C5.3761 1.18056 5.48553 1.30404 5.54875 1.45196L7.51543 5.84511C7.56375 5.95795 7.58343 6.08098 7.57271 6.20326C7.562 6.32553 7.52122 6.44326 7.454 6.54597L5.46499 8.91101C5.39443 9.01748 5.35271 9.14042 5.3439 9.26784C5.33509 9.39525 5.35949 9.52277 5.41472 9.63793C6.18446 11.2137 7.81327 12.823 9.39369 13.5853C9.50946 13.6402 9.63757 13.6641 9.76537 13.6545C9.89317 13.6448 10.0163 13.6021 10.1225 13.5303L12.4521 11.5488Z" stroke="#628EF9" stroke-width="1.5" stroke-linecap="round" stroke-linejoin="round"/>
</svg>
