<svg width="598" height="155" viewBox="0 0 598 155" fill="none" xmlns="http://www.w3.org/2000/svg">
<path d="M56.1346 10.5691C29.7118 20.8216 12.489 44.5605 9.25488 70.8426C14.0148 53.3127 26.7368 38.1915 44.9833 31.1124C62.5388 24.2988 81.3387 26.4676 96.4023 35.3221C103.241 27.4657 110.944 20.4121 120.125 15.5018C108.923 9.04325 96.1048 5.52766 82.9605 5.52766C74.0356 5.52766 64.9572 7.14631 56.1346 10.5691ZM123.052 69.3679C131.817 98.6602 116.763 130.201 87.7877 141.442C69.5924 148.499 50.0247 145.969 34.6957 136.263C54.8039 153.457 83.4692 159.298 109.86 149.059C148.122 134.219 167.088 91.2132 152.242 52.9512C150.316 47.9929 147.911 43.3642 145.109 39.084C136.318 47.1293 129.584 57.8935 123.052 69.3679Z" fill="url(#paint0_linear_188_34)"/>
<path d="M54.1572 93.7617C27.3889 109.689 0 85.499 0 85.499C0 85.499 17.6707 130.904 64.1537 121.739C116.536 111.41 112.659 26.9753 173.14 19.2532C163.953 16.2238 155.773 14.8803 148.406 14.8803C99.3479 14.8835 86.4884 74.5236 54.1572 93.7617Z" fill="url(#paint1_linear_188_34)"/>
<path d="M196.92 51V16.8148H218.82V22.006H203.113V31.2868H217.318V36.478H203.113V51H196.92ZM246.166 16.8148V51H239.973V16.8148H246.166ZM296.476 16.8148V51H290.968L274.86 27.7147H274.576V51H268.384V16.8148H273.925L290.016 40.1168H290.317V16.8148H296.476ZM323.125 51H316.515L328.55 16.8148H336.195L348.247 51H341.637L332.506 23.8255H332.239L323.125 51ZM323.342 37.5963H341.37V42.5706H323.342V37.5963ZM396.354 16.8148V51H390.845L374.738 27.7147H374.454V51H368.261V16.8148H373.803L389.894 40.1168H390.194V16.8148H396.354ZM447.874 28.349H441.631C441.453 27.3252 441.125 26.4183 440.646 25.6282C440.168 24.827 439.573 24.1482 438.86 23.5918C438.148 23.0354 437.336 22.6181 436.423 22.3399C435.522 22.0505 434.548 21.9059 433.502 21.9059C431.644 21.9059 429.997 22.3733 428.561 23.308C427.126 24.2316 426.002 25.5892 425.19 27.3809C424.377 29.1613 423.971 31.3369 423.971 33.9074C423.971 36.5225 424.377 38.7258 425.19 40.5174C426.013 42.2979 427.137 43.6444 428.561 44.5569C429.997 45.4583 431.638 45.9089 433.485 45.9089C434.509 45.9089 435.466 45.7754 436.357 45.5083C437.258 45.2301 438.065 44.824 438.777 44.2898C439.5 43.7557 440.107 43.0991 440.596 42.3202C441.097 41.5412 441.442 40.651 441.631 39.6495L447.874 39.6828C447.64 41.3075 447.134 42.8321 446.355 44.2564C445.587 45.6808 444.58 46.9383 443.334 48.0288C442.087 49.1082 440.63 49.954 438.96 50.566C437.291 51.1669 435.438 51.4674 433.402 51.4674C430.397 51.4674 427.716 50.7719 425.357 49.3809C422.997 47.9899 421.139 45.9813 419.781 43.3551C418.424 40.7289 417.745 37.5796 417.745 33.9074C417.745 30.2241 418.429 27.0748 419.798 24.4598C421.167 21.8336 423.031 19.8249 425.39 18.434C427.749 17.043 430.42 16.3475 433.402 16.3475C435.305 16.3475 437.074 16.6145 438.71 17.1487C440.346 17.6828 441.804 18.4673 443.083 19.5022C444.363 20.526 445.415 21.7835 446.238 23.2746C447.073 24.7546 447.618 26.4461 447.874 28.349ZM475.249 16.8148V51H469.057V16.8148H475.249ZM501.857 51H495.247L507.282 16.8148H514.927L526.978 51H520.368L511.238 23.8255H510.971L501.857 51ZM502.074 37.5963H520.101V42.5706H502.074V37.5963ZM546.992 51V16.8148H553.185V45.8088H568.241V51H546.992ZM196.92 118V83.8148H209.74C212.366 83.8148 214.569 84.3045 216.35 85.2837C218.141 86.263 219.493 87.6095 220.406 89.3232C221.329 91.0258 221.791 92.962 221.791 95.132C221.791 97.3242 221.329 99.2716 220.406 100.974C219.482 102.677 218.119 104.018 216.316 104.997C214.513 105.965 212.293 106.449 209.656 106.449H201.16V101.358H208.822C210.357 101.358 211.615 101.091 212.594 100.557C213.573 100.023 214.296 99.2883 214.764 98.3535C215.242 97.4188 215.482 96.3449 215.482 95.132C215.482 93.919 215.242 92.8508 214.764 91.9271C214.296 91.0035 213.568 90.2858 212.577 89.7739C211.598 89.2509 210.335 88.9893 208.788 88.9893H203.113V118H196.92ZM238.451 118V83.8148H244.644V112.809H259.7V118H238.451ZM282.031 118H275.421L287.456 83.8148H295.101L307.153 118H300.543L291.412 90.8255H291.145L282.031 118ZM282.248 104.596H300.276V109.571H282.248V104.596ZM351.029 83.8148V118H345.521L329.413 94.7147H329.129V118H322.937V83.8148H328.478L344.569 107.117H344.87V83.8148H351.029ZM397.151 83.8148V118H391.642L375.534 94.7147H375.251V118H369.058V83.8148H374.6L390.691 107.117H390.991V83.8148H397.151ZM415.179 118V83.8148H437.413V89.006H421.372V98.2868H436.261V103.478H421.372V112.809H437.547V118H415.179ZM455.012 118V83.8148H467.832C470.458 83.8148 472.661 84.2711 474.442 85.1836C476.233 86.0961 477.585 87.3758 478.498 89.0227C479.421 90.6585 479.883 92.567 479.883 94.7481C479.883 96.9403 479.416 98.8432 478.481 100.457C477.557 102.059 476.194 103.3 474.392 104.179C472.589 105.047 470.374 105.481 467.748 105.481H458.618V100.34H466.914C468.449 100.34 469.707 100.128 470.686 99.7056C471.665 99.2716 472.388 98.6429 472.856 97.8194C473.334 96.9848 473.574 95.961 473.574 94.7481C473.574 93.5351 473.334 92.5002 472.856 91.6434C472.377 90.7754 471.648 90.1188 470.669 89.6737C469.69 89.2175 468.427 88.9893 466.88 88.9893H461.205V118H455.012ZM472.672 102.51L481.135 118H474.225L465.912 102.51H472.672Z" fill="#0D3A87"/>
<rect x="500.461" y="74.6543" width="69.1244" height="52.5346" rx="26.2673" fill="url(#paint2_linear_188_34)"/>
<path d="M521.585 112.419H515.207L524.925 84.2665H532.596L542.301 112.419H535.922L528.871 90.6997H528.651L521.585 112.419ZM521.186 101.353H536.252V105.999H521.186V101.353ZM552.028 84.2665V112.419H546.076V84.2665H552.028Z" fill="white"/>
<defs>
<linearGradient id="paint0_linear_188_34" x1="157.617" y1="5.20629" x2="-5.96887" y2="168.792" gradientUnits="userSpaceOnUse">
<stop stop-color="#1355C9"/>
<stop offset="1" stop-color="#051838"/>
</linearGradient>
<linearGradient id="paint1_linear_188_34" x1="0.00125396" y1="68.9211" x2="173.141" y2="68.9211" gradientUnits="userSpaceOnUse">
<stop stop-color="#8FB4F5"/>
<stop offset="1" stop-color="#1459D2"/>
</linearGradient>
<linearGradient id="paint2_linear_188_34" x1="551.613" y1="74.6543" x2="521.198" y2="127.189" gradientUnits="userSpaceOnUse">
<stop stop-color="#2162D5"/>
<stop offset="1" stop-color="#4980E1"/>
</linearGradient>
</defs>
</svg>
