<svg width="34" height="34" viewBox="0 0 34 34" fill="none" xmlns="http://www.w3.org/2000/svg">
<path d="M24.7812 7.375H6.21875C5.75276 7.375 5.375 7.75276 5.375 8.21875V26.7812C5.375 27.2472 5.75276 27.625 6.21875 27.625H24.7812C25.2472 27.625 25.625 27.2472 25.625 26.7812V8.21875C25.625 7.75276 25.2472 7.375 24.7812 7.375Z" stroke="#84A6F9" stroke-width="1.58824" stroke-linecap="round" stroke-linejoin="round"/>
<path d="M14.6562 15.8125V22.5625" stroke="#84A6F9" stroke-width="1.58824" stroke-linecap="round" stroke-linejoin="round"/>
<path d="M11.2812 15.8125V22.5625" stroke="#84A6F9" stroke-width="1.58824" stroke-linecap="round" stroke-linejoin="round"/>
<path d="M14.6562 18.7656C14.6563 17.9824 14.9674 17.2313 15.5212 16.6775C16.075 16.1236 16.8262 15.8125 17.6094 15.8125C18.3926 15.8125 19.1437 16.1236 19.6976 16.6775C20.2514 17.2313 20.5625 17.9824 20.5625 18.7656V22.5625" stroke="#84A6F9" stroke-width="1.58824" stroke-linecap="round" stroke-linejoin="round"/>
<path d="M11.2812 13.9141C11.8637 13.9141 12.3359 13.4419 12.3359 12.8594C12.3359 12.2769 11.8637 11.8047 11.2812 11.8047C10.6988 11.8047 10.2266 12.2769 10.2266 12.8594C10.2266 13.4419 10.6988 13.9141 11.2812 13.9141Z" fill="#84A6F9"/>
</svg>
