<svg width="74" height="51" viewBox="0 0 74 51" fill="none" xmlns="http://www.w3.org/2000/svg">
<path d="M58.375 30.125L46.5 42L27.5 37.25L10.875 25.375" stroke="#628EF9" stroke-width="2" stroke-linecap="round" stroke-linejoin="round"/>
<path d="M20.5771 5.96828L37.0003 1.625L53.4234 5.96828" stroke="#628EF9" stroke-width="2" stroke-linecap="round" stroke-linejoin="round"/>
<path d="M9.20354 2.93685L1.62729 18.0953C1.34572 18.6583 1.29919 19.3101 1.49792 19.9074C1.69665 20.5047 2.12439 20.9987 2.68713 21.2808L10.8749 25.3747L20.5768 5.96795L12.392 1.87701C12.1131 1.73713 11.8093 1.65358 11.4981 1.63115C11.1868 1.60871 10.8742 1.64782 10.5781 1.74625C10.282 1.84468 10.0082 2.00048 9.77237 2.20477C9.53651 2.40906 9.34322 2.65783 9.20354 2.93685Z" stroke="#628EF9" stroke-width="2" stroke-linecap="round" stroke-linejoin="round"/>
<path d="M63.1247 25.3747L71.3125 21.2808C71.8753 20.9987 72.303 20.5047 72.5017 19.9074C72.7005 19.3101 72.6539 18.6583 72.3724 18.0953L64.7961 2.93685C64.6565 2.65783 64.4632 2.40906 64.2273 2.20477C63.9914 2.00048 63.7176 1.84468 63.4215 1.74625C63.1254 1.64782 62.8128 1.60871 62.5016 1.63115C62.1904 1.65358 61.8866 1.73713 61.6077 1.87701L53.4229 5.96795L63.1247 25.3747Z" stroke="#628EF9" stroke-width="2" stroke-linecap="round" stroke-linejoin="round"/>
<path d="M53.6249 6.375H41.7499L28.1946 19.5236C27.9426 19.7755 27.7505 20.0808 27.6325 20.417C27.5145 20.7532 27.4737 21.1116 27.5131 21.4657C27.5524 21.8198 27.6709 22.1605 27.8598 22.4626C28.0487 22.7647 28.3031 23.0204 28.6043 23.2108C33.8026 26.5328 40.8593 26.3042 46.4999 20.625L58.3749 30.125L63.1249 25.375" stroke="#628EF9" stroke-width="2" stroke-linecap="round" stroke-linejoin="round"/>
<path d="M35.8303 49.125L23.4447 46.0286L15.625 40.4414" stroke="#628EF9" stroke-width="2" stroke-linecap="round" stroke-linejoin="round"/>
</svg>
