<svg width="62" height="56" viewBox="0 0 62 56" fill="none" xmlns="http://www.w3.org/2000/svg">
<path d="M5.55999 6.95898H48.9198C54.4868 6.95898 58.9998 11.4719 58.9998 17.0389V17.0389C58.9998 22.6059 54.4868 27.1189 48.9198 27.1189H13.72C7.79949 27.1189 3 31.9184 3 37.8388V37.8388C3 43.7593 7.79949 48.5588 13.72 48.5588H58.9998" stroke="#628EF9" stroke-width="2" stroke-linecap="round" stroke-linejoin="round"/>
<path d="M15 8C15 11.866 11.866 15 8 15C4.13401 15 1 11.866 1 8C1 4.13401 4.13401 1 8 1C11.866 1 15 4.13401 15 8Z" fill="#F8F8FB" stroke="#628EF9" stroke-width="2" stroke-linecap="round" stroke-linejoin="round"/>
<path d="M61 48C61 51.866 57.866 55 54 55C50.134 55 47 51.866 47 48C47 44.134 50.134 41 54 41C57.866 41 61 44.134 61 48Z" fill="#F8F8FB" stroke="#628EF9" stroke-width="2" stroke-linecap="round" stroke-linejoin="round"/>
<path d="M39 26C39 29.866 35.866 33 32 33C28.134 33 25 29.866 25 26C25 22.134 28.134 19 32 19C35.866 19 39 22.134 39 26Z" fill="#F8F8FB" stroke="#628EF9" stroke-width="2" stroke-linecap="round" stroke-linejoin="round"/>
</svg>
